<svg width="29" height="15" viewBox="0 0 29 15" fill="none" xmlns="http://www.w3.org/2000/svg">
<path d="M8.33175 14.6959C8.52471 14.5032 8.63301 14.2426 8.63301 13.971C8.63301 13.6993 8.52471 13.4387 8.33175 13.2461L3.56614 8.52658H27.964C28.2388 8.52658 28.5023 8.41826 28.6966 8.22543C28.8909 8.0326 29 7.77107 29 7.49837C29 7.22567 28.8909 6.96414 28.6966 6.77132C28.5023 6.57849 28.2388 6.47016 27.964 6.47016H3.59722L8.33175 1.77123C8.52821 1.57762 8.63912 1.31447 8.64009 1.0397C8.64106 0.764917 8.53201 0.50101 8.33693 0.30603C8.14185 0.111051 7.87671 0.000970526 7.59985 6.38671e-06C7.32299 -0.000957753 7.05708 0.107273 6.86063 0.300889L0.271651 6.8506C0.0976748 7.02402 0 7.25879 0 7.50351C0 7.74824 0.0976748 7.983 0.271651 8.15643L6.86063 14.6959C6.95694 14.7922 7.07152 14.8687 7.19777 14.9209C7.32401 14.9731 7.45942 15 7.59619 15C7.73295 15 7.86836 14.9731 7.99461 14.9209C8.12086 14.8687 8.23544 14.7922 8.33175 14.6959Z" fill="#58CC02"/>
</svg>
