<svg width="140" height="141" viewBox="0 0 140 141" fill="none" xmlns="http://www.w3.org/2000/svg">
<rect width="140" height="141" rx="70" fill="white"/>
<g clip-path="url(#clip0_173_12)">
<path fill-rule="evenodd" clip-rule="evenodd" d="M96.2174 58.2175C99.9276 54.5075 99.9276 48.4925 96.2174 44.7825C92.5075 41.0725 86.4925 41.0725 82.7825 44.7825L70.4991 57.0659L58.2184 44.7853C54.5085 41.0753 48.4934 41.0753 44.7834 44.7853C41.0734 48.4952 41.0734 54.5103 44.7834 58.2203L57.064 70.5009L44.7825 82.7825C41.0725 86.4925 41.0725 92.5075 44.7825 96.2174C48.4925 99.9276 54.5075 99.9276 58.2175 96.2174L70.4991 83.936L82.7835 96.2203C86.4934 99.9302 92.5085 99.9302 96.2184 96.2203C99.9283 92.5104 99.9283 86.4953 96.2184 82.7852L83.9341 70.5009L96.2174 58.2175Z" fill="#EA2B2B"/>
</g>
<defs>
<clipPath id="clip0_173_12">
<rect width="57" height="57" fill="white" transform="translate(42 42)"/>
</clipPath>
</defs>
</svg>
